<?xml version="1.0" encoding="utf-8"?>
<!-- Generator: Adobe Illustrator 16.0.0, SVG Export Plug-In . SVG Version: 6.00 Build 0)  -->
<!DOCTYPE svg PUBLIC "-//W3C//DTD SVG 1.1//EN" "http://www.w3.org/Graphics/SVG/1.1/DTD/svg11.dtd">
<svg version="1.1" id="Layer_1" xmlns="http://www.w3.org/2000/svg" xmlns:xlink="http://www.w3.org/1999/xlink" x="0px" y="0px"
	 width="143.994px" height="144px" viewBox="0 0 143.994 144" enable-background="new 0 0 143.994 144" xml:space="preserve">
<rect fill="#EF4136" width="143.995" height="144"/>
<g>
	<defs>
		<rect id="SVGID_1_" width="143.994" height="144"/>
	</defs>
	<clipPath id="SVGID_2_">
		<use xlink:href="#SVGID_1_"  overflow="visible"/>
	</clipPath>
	<path clip-path="url(#SVGID_2_)" fill="#FFFFFF" d="M21.32,20.28c-4.294,0-7.776,3.592-7.776,8.006v32.635
		c0,4.392,3.482,8.012,7.776,8.012c4.283,0,7.76-3.62,7.76-8.012V28.286C29.08,23.872,25.603,20.28,21.32,20.28 M25.34,60.921
		c0,2.404-1.714,4.239-4.02,4.239s-4.042-1.835-4.042-4.239V28.286c0-2.464,1.736-4.343,4.042-4.343s4.02,1.879,4.02,4.343V60.921z"
		/>
	<path clip-path="url(#SVGID_2_)" fill="#FFFFFF" d="M43.045,20.887h-8.341v47.421h3.768V48.747h4.573
		c4.085,0,6.621-2.837,6.621-7.47V28.353C49.667,23.762,47.13,20.887,43.045,20.887 M45.898,41.276c0,3.401-1.643,3.801-2.853,3.801
		h-4.573V24.523h4.573c1.21,0,2.853,0.428,2.853,3.829V41.276z"/>
	<polygon clip-path="url(#SVGID_2_)" fill="#FFFFFF" points="58.177,68.309 61.934,68.309 61.934,24.623 67.848,24.623 
		67.848,21.036 52.136,21.036 52.136,24.623 58.177,24.623 	"/>
	<rect x="71.71" y="20.888" clip-path="url(#SVGID_2_)" fill="#FFFFFF" width="3.724" height="47.421"/>
	<path clip-path="url(#SVGID_2_)" fill="#FFFFFF" d="M96.25,53.752h-3.763v6.999c0,2.005-0.662,4.409-3.801,4.409
		c-3.658,0-3.981-3.461-3.981-4.568V28.527c0-2.705,1.654-4.584,3.981-4.584c2.52,0,3.801,1.517,3.801,4.497v6.993h3.763V28.44
		c0-4.88-3.039-8.16-7.563-8.16c-4.595,0-7.728,3.324-7.728,8.247v32.065c0,4.836,3.248,8.341,7.728,8.341
		c4.524,0,7.563-3.302,7.563-8.182V53.752z"/>
	<path clip-path="url(#SVGID_2_)" fill="#FFFFFF" d="M109.564,20.888h-4.114l-6.396,47.421h3.702l1.141-8.757h7.068l1.074,8.757
		h3.707L109.564,20.888z M104.377,55.899l3.1-23.007l2.996,23.007H104.377z"/>
	<polygon clip-path="url(#SVGID_2_)" fill="#FFFFFF" points="123.589,64.563 123.589,20.888 119.859,20.888 119.859,68.309 
		132.065,68.309 132.065,64.563 	"/>
	<path clip-path="url(#SVGID_2_)" fill="#FFFFFF" d="M20.707,74.547c-4.891,0-8.155,3.576-8.155,8.899
		c0,6.139,2.947,11.073,5.844,15.838l0.46,0.761c3.001,5.176,5.526,9.853,5.526,14.655c0,2.005-0.57,5.318-4.338,5.318
		c-3.598,0-4.397-2.717-4.397-5.006v-3.79h-3.713v3.79c0,5.175,3.269,8.708,8.11,8.708c4.754,0,8.04-3.702,8.04-9.021
		c0-5.805-2.744-10.924-6.063-16.566l-0.438-0.745c-3.231-5.235-5.301-9.02-5.301-13.942c0-1.944,0.586-5.241,4.425-5.241
		c2.694,0,3.675,2.464,3.675,4.792v4.184h3.702v-4.184C28.083,77.997,25.065,74.547,20.707,74.547"/>
	<polygon clip-path="url(#SVGID_2_)" fill="#FFFFFF" points="44.99,97.701 36.375,97.701 36.375,75.368 32.64,75.368 32.64,122.784 
		36.375,122.784 36.375,101.447 44.99,101.447 44.99,122.784 48.714,122.784 48.714,75.368 44.99,75.368 	"/>
	<path clip-path="url(#SVGID_2_)" fill="#FFFFFF" d="M62.142,74.744c-4.277,0-7.787,3.592-7.787,8.028v32.618
		c0,4.414,3.51,8.018,7.787,8.018c4.283,0,7.777-3.604,7.777-8.018V82.772C69.918,78.336,66.425,74.744,62.142,74.744
		 M66.162,115.391c0,2.394-1.714,4.255-4.02,4.255c-2.333,0-4.036-1.861-4.036-4.255V82.772c0-2.492,1.703-4.365,4.036-4.365
		c2.306,0,4.02,1.873,4.02,4.365V115.391z"/>
	<path clip-path="url(#SVGID_2_)" fill="#FFFFFF" d="M83.856,75.368h-8.318v47.416h3.702v-19.573h4.616c4.097,0,6.6-2.843,6.6-7.509
		V82.827C90.456,78.223,87.953,75.368,83.856,75.368 M86.721,95.702c0,3.435-1.632,3.834-2.864,3.834H79.24V79.043h4.616
		c1.232,0,2.864,0.378,2.864,3.784V95.702z"/>
	<path clip-path="url(#SVGID_2_)" fill="#FFFFFF" d="M103.26,75.368h-8.318v47.416h3.74v-19.573h4.578
		c4.086,0,6.616-2.843,6.616-7.509V82.827C109.876,78.223,107.346,75.368,103.26,75.368 M106.146,95.702
		c0,3.435-1.638,3.834-2.887,3.834h-4.578V79.043h4.578c1.249,0,2.887,0.378,2.887,3.784V95.702z"/>
	<polygon clip-path="url(#SVGID_2_)" fill="#FFFFFF" points="114.333,122.784 127.033,122.784 127.033,119.099 118.09,119.099 
		118.09,100.133 124.635,100.133 124.635,96.458 118.09,96.458 118.09,79.043 127.033,79.043 127.033,75.368 114.333,75.368 	"/>
</g>
</svg>
